HIERARCHY
ROOT SpineBase
{
  OFFSET 0.000000 0.000000 0.000000
  CHANNELS 6 Xposition Yposition Zposition Zrotation Xrotation Yrotation
  JOINT SpineMid
  {
    OFFSET -0.000000 28.864359 0.000000
    CHANNELS 3 Zrotation Xrotation Yrotation
    JOINT SpineShoulder
    {
      OFFSET -0.027927 21.371930 -0.700605
      CHANNELS 3 Zrotation Xrotation Yrotation
      JOINT Neck
      {
        OFFSET -0.030081 7.059828 -0.569660
        CHANNELS 3 Zrotation Xrotation Yrotation
        JOINT Head
        {
          OFFSET 2.461838 11.148873 0.962178
          CHANNELS 3 Zrotation Xrotation Yrotation
          End Site
          {
            OFFSET 0 0 0
          }
        }
      }
      JOINT ShoulderLeft
      {
        OFFSET -16.907721 -3.585042 -3.387260
        CHANNELS 3 Zrotation Xrotation Yrotation
        JOINT ElbowLeft
        {
          OFFSET -3.946551 -24.541825 -1.862649
          CHANNELS 3 Zrotation Xrotation Yrotation
          JOINT WristLeft
          {
            OFFSET -0.339245 -19.965698 -5.991715
            CHANNELS 3 Zrotation Xrotation Yrotation
            JOINT HandLeft
            {
              OFFSET 1.559699 -5.364162 -0.373786
              CHANNELS 3 Zrotation Xrotation Yrotation
              JOINT HandTipLeft
              {
                OFFSET 0.511998 -7.005889 -1.222944
                CHANNELS 3 Zrotation Xrotation Yrotation
                End Site
                {
                  OFFSET 0 0 0
                }
              }
              JOINT ThumbLeft
              {
                OFFSET 3.317761 -0.992342 -2.178280
                CHANNELS 3 Zrotation Xrotation Yrotation
                End Site
                {
                  OFFSET 0 0 0
                }
              }
            }
          }
        }
      }
      JOINT ShoulderRight
      {
        OFFSET 16.758964 -4.638261 1.603745
        CHANNELS 3 Zrotation Xrotation Yrotation
        JOINT ElbowRight
        {
          OFFSET 2.924603 -25.441827 0.835780
          CHANNELS 3 Zrotation Xrotation Yrotation
          JOINT WristRight
          {
            OFFSET -0.109518 -20.184935 -5.947042
            CHANNELS 3 Zrotation Xrotation Yrotation
            JOINT HandRight
            {
              OFFSET -2.215996 -4.160568 -1.107761
              CHANNELS 3 Zrotation Xrotation Yrotation
              JOINT HandTipRight
              {
                OFFSET 0.508576 -4.713836 -1.631426
                CHANNELS 3 Zrotation Xrotation Yrotation
                End Site
                {
                  OFFSET 0 0 0
                }
              }
              JOINT ThumbRight
              {
                OFFSET 2.304028 -0.069023 -3.129159
                CHANNELS 3 Zrotation Xrotation Yrotation
                End Site
                {
                  OFFSET 0 0 0
                }
              }
            }
          }
        }
      }
    }
  }
  JOINT HipLeft
  {
    OFFSET -6.320888 0.974507 -4.734697
    CHANNELS 3 Zrotation Xrotation Yrotation
    JOINT KneeLeft
    {
      OFFSET -9.031973 -26.978734 -2.810495
      CHANNELS 3 Zrotation Xrotation Yrotation
      JOINT AnkleLeft
      {
        OFFSET -5.585141 -32.964846 2.478474
        CHANNELS 3 Zrotation Xrotation Yrotation
        JOINT FootLeft
        {
          OFFSET 1.658212 -2.743835 -15.836993
          CHANNELS 3 Zrotation Xrotation Yrotation
          End Site
          {
            OFFSET 0 0 0
          }
        }
      }
    }
  }
  JOINT HipRight
  {
    OFFSET 5.238481 -0.137809 -2.940011
    CHANNELS 3 Zrotation Xrotation Yrotation
    JOINT KneeRight
    {
      OFFSET 2.809670 -29.529283 7.252489
      CHANNELS 3 Zrotation Xrotation Yrotation
      JOINT AnkleRight
      {
        OFFSET 1.742973 -29.216636 8.545419
        CHANNELS 3 Zrotation Xrotation Yrotation
        JOINT FootRight
        {
          OFFSET 2.951578 -7.787815 -4.143931
          CHANNELS 3 Zrotation Xrotation Yrotation
          End Site
          {
            OFFSET 0 0 0
          }
        }
      }
    }
  }
}
MOTION
Frames: 15
Frame Time: 0.033333
60.052680 67.507498 425.843482 1.134115 -1.716050 -19.382725 0.265033 0.102260 19.439366 0.358520 0.414308 0.081687 -3.527396 7.493975 -1.190904 0.000000 0.000000 0.000000 -29.291005 3.405310 2.716399 36.781432 -11.187239 -2.536344 -15.720609 7.493424 4.664826 14.059981 -11.624121 -1.907352 0.000000 0.000000 0.000000 0.000000 0.000000 0.000000 -1.216003 -1.468110 -0.415664 -3.150078 5.333453 1.226346 9.037820 -16.083743 6.206684 -22.533304 -2.460811 0.582674 0.000000 0.000000 0.000000 0.000000 0.000000 0.000000 -3.522339 3.392266 18.719428 -0.083171 -5.473531 1.101174 -4.946482 -46.836259 -0.197469 0.000000 0.000000 0.000000 -2.047611 2.270517 19.524981 -0.974202 -0.359400 -0.360982 5.917530 -3.380795 -3.159736 0.000000 0.000000 0.000000
60.259503 67.291046 425.812422 1.218264 -1.171301 -21.090897 0.209211 0.671331 21.145237 0.367075 0.676892 0.095989 -6.362050 9.063775 -1.439633 0.000000 0.000000 0.000000 -27.516760 3.506626 1.943873 33.755191 -11.908099 -1.646845 -18.011308 8.024878 5.229614 16.465535 -11.333942 -2.124107 0.000000 0.000000 0.000000 0.000000 0.000000 0.000000 -1.757805 -2.231030 -0.400434 -2.204339 4.218310 0.903397 8.581737 -14.693468 5.757123 -20.572406 -1.193240 0.374537 0.000000 0.000000 0.000000 0.000000 0.000000 0.000000 -3.686521 2.836558 20.368233 -0.290265 -5.811216 1.114270 -4.874467 -43.567157 -2.873263 0.000000 0.000000 0.000000 -1.661798 2.162974 21.362715 -2.118268 -0.608825 -0.723561 7.713482 -4.058087 -3.718858 0.000000 0.000000 0.000000
60.444493 67.270009 425.771987 1.339598 -0.484250 -22.715696 0.110166 1.212847 22.768586 0.305236 1.017986 0.104189 -9.709680 12.395408 -1.909565 0.000000 0.000000 0.000000 -23.418972 2.577627 0.899356 27.170123 -11.288794 -0.995118 -16.070574 6.744933 4.054480 11.833067 -5.526496 -1.399214 0.000000 0.000000 0.000000 0.000000 0.000000 0.000000 -2.426937 -2.957996 -0.387478 -0.974077 2.932688 0.537895 10.034340 -13.911095 5.475101 -19.153034 -1.156065 -0.340151 0.000000 0.000000 0.000000 0.000000 0.000000 0.000000 -3.650185 2.178931 21.907174 -0.693643 -6.109200 1.121001 -2.764884 -29.299224 -7.596136 0.000000 0.000000 0.000000 -1.206880 1.974665 23.132677 -3.296352 -0.934061 -1.110792 9.236324 -4.978836 -4.259782 0.000000 0.000000 0.000000
60.593724 67.486209 425.710299 1.156628 0.940253 -24.614635 -0.228679 1.877771 24.655770 0.430757 0.986812 0.122040 -12.759589 13.526457 -2.176038 0.000000 0.000000 0.000000 -19.903954 1.580001 -0.081676 20.913570 -11.133610 -0.083324 -13.804578 5.656181 2.839369 4.267757 -2.259762 0.059822 0.000000 0.000000 0.000000 0.000000 0.000000 0.000000 -3.825993 -2.899277 -0.317413 1.589305 0.586571 -0.016693 12.738039 -9.140807 2.066251 -20.759157 -2.149312 2.249627 0.000000 0.000000 0.000000 0.000000 0.000000 0.000000 -2.817394 1.035276 23.675759 -1.314353 -6.555032 1.156077 -1.004008 -21.752953 -8.979763 0.000000 0.000000 0.000000 -0.388974 1.334963 25.153707 -4.183538 -1.644096 -1.466757 9.818479 -5.451268 -4.399951 0.000000 0.000000 0.000000
60.757844 67.804241 425.641553 0.804908 2.854460 -26.558595 -0.643646 2.442963 26.598110 0.595763 0.742560 0.146328 -15.755676 14.734586 -2.525152 0.000000 0.000000 0.000000 -17.986176 0.356805 -0.865834 16.686085 -11.328927 0.679642 -13.179481 6.196382 2.606416 -0.378772 1.859510 1.458245 0.000000 0.000000 0.000000 0.000000 0.000000 0.000000 -5.269427 -1.867149 -0.143094 4.473448 -1.823025 -0.534844 13.150962 -5.796994 -0.671575 -19.516930 -5.599082 3.332910 0.000000 0.000000 0.000000 0.000000 0.000000 0.000000 -1.603914 -0.245599 25.453681 -2.017446 -7.266471 1.241168 0.354046 -17.100189 -8.079388 0.000000 0.000000 0.000000 0.646366 0.414748 27.222714 -4.692945 -2.523749 -1.741067 9.972236 -5.852164 -4.513465 0.000000 0.000000 0.000000
60.974429 68.039389 425.504358 0.369370 4.754746 -28.513202 -1.213017 2.631174 28.552726 0.428541 0.633789 0.110640 -16.912299 18.952874 -3.192313 0.000000 0.000000 0.000000 -15.678188 -0.420126 -1.415119 13.274585 -11.530529 1.382076 -11.352413 6.698448 2.353471 -4.067429 2.688283 1.942541 0.000000 0.000000 0.000000 0.000000 0.000000 0.000000 -5.380093 -0.882356 0.168897 6.755228 -3.886148 -0.905181 13.902953 -1.264775 -4.517798 -18.794218 -9.698797 5.549821 0.000000 0.000000 0.000000 0.000000 0.000000 0.000000 -0.261387 -1.376697 27.292330 -2.786735 -8.006426 1.308496 1.153068 -15.465018 -7.206649 0.000000 0.000000 0.000000 1.419666 -0.671083 29.203356 -4.398844 -3.425019 -1.774446 9.565681 -6.106853 -4.587235 0.000000 0.000000 0.000000
61.289283 68.255181 425.347589 -0.384640 7.255869 -30.864207 -1.787295 2.575600 30.919983 0.314054 0.320552 0.058735 -16.494612 20.544602 -3.838371 0.000000 0.000000 0.000000 -14.315765 -1.433781 -1.886490 11.515779 -11.315977 1.945011 -11.998486 8.876048 3.459510 -1.604352 1.091885 0.535686 0.000000 0.000000 0.000000 0.000000 0.000000 0.000000 -5.142635 0.752174 0.678570 8.593724 -6.390927 -1.067579 16.734231 4.574980 -10.303800 -22.522030 -16.311658 9.414456 0.000000 0.000000 0.000000 0.000000 0.000000 0.000000 1.596027 -2.963891 29.667265 -3.299254 -8.554666 1.313656 1.484062 -16.419331 -5.448876 0.000000 0.000000 0.000000 2.804410 -2.024203 31.648998 -4.163283 -4.310909 -1.831302 9.922602 -6.254213 -4.885925 0.000000 0.000000 0.000000
61.481825 68.516559 424.749471 -1.381857 10.341133 -32.941411 -1.969198 2.582827 33.092787 0.476950 -0.094577 0.057329 -18.120271 20.277698 -4.282135 0.000000 0.000000 0.000000 -13.842642 -2.806178 -2.494502 11.051690 -10.321359 2.381688 -8.851541 4.202740 1.365450 -10.635877 9.871992 4.745626 0.000000 0.000000 0.000000 0.000000 0.000000 0.000000 -5.084707 2.173639 1.168496 10.176485 -8.223758 -1.134091 18.436704 8.884965 -15.147922 -25.420215 -19.786463 12.357317 0.000000 0.000000 0.000000 0.000000 0.000000 0.000000 4.584585 -5.001783 32.096352 -4.266235 -8.662866 1.187540 1.563848 -20.272455 -3.385915 0.000000 0.000000 0.000000 5.454619 -4.186681 33.987949 -4.155408 -4.337693 -1.821064 10.738811 -6.923782 -5.554422 0.000000 0.000000 0.000000
61.985336 68.639485 424.941640 -2.185163 12.540818 -31.869859 -1.724541 2.496078 32.135271 0.614658 -0.309709 0.064524 -19.857603 20.389817 -4.527478 0.000000 0.000000 0.000000 -13.843439 -2.966525 -2.919679 11.268408 -9.357571 2.817117 -5.850328 -0.044596 -0.037524 -13.738504 15.270543 7.094276 0.000000 0.000000 0.000000 0.000000 0.000000 0.000000 -5.182740 4.192890 1.677567 11.196724 -9.236872 -1.107915 20.486395 10.728115 -18.442838 -26.889533 -22.591682 14.128932 0.000000 0.000000 0.000000 0.000000 0.000000 0.000000 5.544765 -5.171049 30.718921 -5.223094 -10.707637 1.432776 1.854357 -27.116649 -0.025705 0.000000 0.000000 0.000000 6.737535 -5.102077 33.236268 -4.553357 -5.407326 -2.124424 9.253559 -9.686720 -5.637836 0.000000 0.000000 0.000000
62.533569 68.375780 425.201403 -3.048118 14.767851 -30.817838 -1.117388 2.152956 31.247773 0.534780 -0.071654 0.037722 -21.341551 18.075675 -4.832165 0.000000 0.000000 0.000000 -13.873445 -2.787991 -3.368395 12.476100 -9.040761 3.270755 -2.541232 -5.827635 -1.480184 -13.850823 16.398134 7.624817 0.000000 0.000000 0.000000 0.000000 0.000000 0.000000 -5.080016 5.629957 2.144906 11.993013 -10.081039 -1.039840 21.060634 11.606357 -20.283984 -27.770896 -23.635845 15.233248 0.000000 0.000000 0.000000 0.000000 0.000000 0.000000 6.150848 -5.686929 29.440774 -5.171632 -12.356856 1.660595 3.330982 -40.866333 10.520877 0.000000 0.000000 0.000000 7.895045 -6.818444 32.348795 -4.216021 -5.630167 -2.094106 15.365545 -6.825079 -7.261219 0.000000 0.000000 0.000000
63.162244 67.795773 425.986800 -3.609341 15.978967 -26.941106 -0.439623 1.963590 27.512719 0.374753 0.377377 0.008518 -23.861353 15.812049 -4.997173 0.000000 0.000000 0.000000 -14.132286 -1.976371 -3.696893 14.583449 -9.286846 3.676478 -2.561411 -12.108002 -2.785997 -8.017420 14.182485 6.225342 0.000000 0.000000 0.000000 0.000000 0.000000 0.000000 -4.885386 6.974076 2.548189 12.370786 -10.766453 -1.019126 20.330780 12.150246 -21.145622 -29.253659 -22.055905 15.913707 0.000000 0.000000 0.000000 0.000000 0.000000 0.000000 5.204021 -4.897532 24.846954 -5.156463 -14.867456 2.048860 5.199727 -44.014274 14.729039 0.000000 0.000000 0.000000 7.790807 -7.792431 28.578359 -4.357054 -6.303142 -2.302702 20.220992 -4.061440 -8.357845 0.000000 0.000000 0.000000
63.793563 67.332238 426.589554 -3.975171 17.213365 -23.798675 0.167174 1.409657 24.472506 0.104125 1.157049 -0.035169 -25.027524 11.691645 -5.465066 0.000000 0.000000 0.000000 -14.343360 -0.816311 -4.041651 16.759230 -10.148676 4.294473 -5.437863 -13.140469 -2.616702 7.008029 2.908705 0.551495 0.000000 0.000000 0.000000 0.000000 0.000000 0.000000 -4.852088 7.954459 2.885808 12.779048 -11.827078 -0.907421 19.945148 11.677205 -21.089297 -28.581660 -20.269631 16.415444 0.000000 0.000000 0.000000 0.000000 0.000000 0.000000 4.053286 -4.818163 21.155640 -4.119397 -16.155899 2.375389 4.593142 -41.402115 11.835601 0.000000 0.000000 0.000000 8.355121 -9.370447 25.686078 -5.169860 -5.447705 -2.516168 23.701141 -2.144531 -8.658011 0.000000 0.000000 0.000000
64.530078 66.917873 427.583650 -3.809618 17.518127 -21.971356 0.415576 0.988320 22.624642 -0.169068 1.895504 -0.069104 -27.120852 9.383929 -5.754408 0.000000 0.000000 0.000000 -14.416781 0.689974 -4.214973 18.294043 -10.885150 4.880038 -1.240936 -19.793600 -3.420271 8.672212 -0.523014 0.167454 0.000000 0.000000 0.000000 0.000000 0.000000 0.000000 -4.672576 8.718528 3.115234 12.697532 -12.686616 -0.912786 21.147670 11.768259 -21.781343 -28.924142 -19.061250 16.862221 0.000000 0.000000 0.000000 0.000000 0.000000 0.000000 2.145742 -3.711704 18.525710 -3.110074 -17.503475 2.747674 3.616687 -31.904594 3.270875 0.000000 0.000000 0.000000 7.321068 -8.888565 23.803679 -5.755492 -6.481063 -2.983335 25.071820 -0.698950 -8.329992 0.000000 0.000000 0.000000
65.164938 66.497842 428.611024 -3.528478 17.724402 -15.769741 0.447607 0.649206 16.359424 -0.277263 2.318467 -0.076608 -30.584549 5.359593 -6.234332 0.000000 0.000000 0.000000 -14.752758 2.697356 -4.365656 20.351086 -12.186441 5.669343 -0.393080 -22.722769 -3.295269 10.948334 -7.291698 -0.171920 0.000000 0.000000 0.000000 0.000000 0.000000 0.000000 -4.613937 9.428830 3.289647 12.651868 -12.720425 -0.948310 21.635277 10.235550 -21.087579 -29.383113 -16.324644 16.980676 0.000000 0.000000 0.000000 0.000000 0.000000 0.000000 -0.236367 -2.012482 11.362972 -1.654026 -19.269122 3.363980 3.809698 -24.670175 -4.004728 0.000000 0.000000 0.000000 6.118212 -9.677178 17.556650 -6.528538 -6.073736 -3.266846 24.456536 -0.177961 -7.079731 0.000000 0.000000 0.000000
65.726495 66.219013 429.375594 -3.210622 17.607582 -9.809384 0.310140 0.276984 10.299255 -0.465628 2.549681 -0.109646 -31.611468 5.011245 -6.191329 0.000000 0.000000 0.000000 -14.817482 4.886107 -4.302780 22.019529 -13.642400 6.453297 -0.736044 -21.692083 -2.496325 13.297079 -13.601281 -0.502733 0.000000 0.000000 0.000000 0.000000 0.000000 0.000000 -4.296222 9.615171 3.375276 12.411754 -11.689145 -1.062055 21.537865 8.418092 -19.926366 -28.313832 -15.304388 16.875295 0.000000 0.000000 0.000000 0.000000 0.000000 0.000000 -2.033395 -0.382335 4.754683 -0.284803 -20.127955 3.834936 4.875693 -17.801955 -9.788699 0.000000 0.000000 0.000000 4.751997 -10.716303 11.356479 -6.944231 -4.876459 -3.260443 23.088165 -0.757203 -5.788642 0.000000 0.000000 0.000000
